<svg width="81" height="70" viewBox="0 0 81 70" fill="none" xmlns="http://www.w3.org/2000/svg">
<path d="M78.0224 69.4571H80.2864L50.1954 17.3481L50.1874 17.3651L50.1794 17.3561L31.0164 50.5481H28.3824L48.8584 15.0761L47.7264 13.1151L26.1184 50.5481H23.4854L46.4144 10.8351L45.2814 8.87409L21.2214 50.5481H18.5874L43.9614 6.59309L42.8374 4.63309L16.3314 50.5481H13.6984L41.5164 2.35209L40.3844 0.39209L10.3024 52.5001H10.3184L10.3104 52.5171H48.6284L49.9494 54.7971H8.98944L7.85744 56.7581H51.0734L52.3944 59.0381H6.54544L5.42144 60.9911H53.5344L54.8554 63.2711H4.10044L2.96844 65.2321H55.9794L57.2914 67.5121H1.65544L0.523438 69.4731H60.6964L60.6884 69.4571H60.7044L41.5324 36.2741L42.8534 33.9931L63.3294 69.4651H65.5934L43.9854 32.0321L45.3064 29.7521L68.2354 69.4651H70.4994L46.4304 27.7911L47.7514 25.5111L73.1244 69.4651H75.3804L48.8754 23.5501L50.1954 21.2701L78.0224 69.4571ZM47.5214 50.5561H33.2724L40.3924 38.2181L47.5214 50.5561Z" fill="#247B7B"/>
</svg>
