<?xml version="1.0" encoding="UTF-8"?>
<svg width="1200pt" height="1200pt" version="1.1" viewBox="0 0 1200 1200" xmlns="http://www.w3.org/2000/svg">
 <path d="m700 550h350c27.5 0 50-22.5 50-50 0-220.5-179.5-400-400-400-27.5 0-50 22.5-50 50v350c0 27.5 22.5 50 50 50zm50-346c125.5 21 224.5 120.5 246 246h-246zm300 446h-350c-27.5 0-50 22.5-50 50v350c0 27.5 22.5 50 50 50 220.5 0 400-179.5 400-400 0-27.5-22.5-50-50-50zm-300 346v-246h246c-21 125.5-120.5 224.5-246 246zm-250-796c-220.5 0-400 179.5-400 400s179.5 400 400 400c27.5 0 50-22.5 50-50v-700c0-27.5-22.5-50-50-50zm-50 696c-141.5-24-250-147.5-250-296s108.5-272 250-296z"/>
</svg>
