<?xml version="1.0" encoding="UTF-8"?>
<svg width="1200pt" height="1200pt" version="1.1" viewBox="0 0 1200 1200" xmlns="http://www.w3.org/2000/svg">
 <path d="m950 100h-700c-82.5 0-150 67.5-150 150v700c0 82.5 67.5 150 150 150h700c82.5 0 150-67.5 150-150v-700c0-82.5-67.5-150-150-150zm-600 800c0 27.5-22.5 50-50 50s-50-22.5-50-50v-100c0-27.5 22.5-50 50-50s50 22.5 50 50zm200 0c0 27.5-22.5 50-50 50s-50-22.5-50-50v-500c0-27.5 22.5-50 50-50s50 22.5 50 50zm200 0c0 27.5-22.5 50-50 50s-50-22.5-50-50v-300c0-27.5 22.5-50 50-50s50 22.5 50 50zm200 0c0 27.5-22.5 50-50 50s-50-22.5-50-50v-600c0-27.5 22.5-50 50-50s50 22.5 50 50z"/>
</svg>
