<?xml version="1.0" encoding="UTF-8"?>
<svg width="1200pt" height="1200pt" version="1.1" viewBox="0 0 1200 1200" xmlns="http://www.w3.org/2000/svg">
 <path d="m950 100h-700c-82.5 0-150 67.5-150 150v700c0 82.5 67.5 150 150 150h700c82.5 0 150-67.5 150-150v-700c0-82.5-67.5-150-150-150zm-5.5 222.5-138.5 277.5c-21.5 43-61.5 72.5-109 80-48 7.5-95-7.5-129-41.5-12-11.5-28-16.5-44-13.5s-29 13.5-35.5 28.5l-144.5 270c-9 17-26 26.5-44 26.5-8 0-16-2-23.5-6-24.5-13-33.5-43.5-20.5-67.5l142.5-266c17.5-41.5 58-74.5 106.5-83.5 48.5-9.5 98.5 6 133.5 41 11 11 26.5 16 42.5 13.5 15.5-2.5 28.5-12 35.5-26.5l139-277.5c12-24.5 42-34.5 67-22 24.5 12 34.5 42 22 67z"/>
</svg>
